<svg id="Layer_1" enable-background="new 0 0 252.698 227.883" height="512" viewBox="0 0 252.698 227.883" width="512" xmlns="http://www.w3.org/2000/svg"><g><path d="m130.3 125.371h27v4h-27z"/><path d="m96.34 216.38c.524 6.542 5.995 11.503 12.446 11.503.335 0 .673-.014 1.012-.041 6.882-.551 12.014-6.576 11.462-13.458l-5.319-66.399c-.521-6.496-5.943-11.502-12.46-11.502h-9.202c-.661 3.224-3.044 5.981-6.428 6.948-3.189.912-6.461 0-8.724-2.106-3.237 3.686-6.872 9.206-7.122 15.617-.004.091-.018.179-.037.265-.479-.554-1.251-.817-1.997-.604-.374.107-.689.32-.927.595-.026-.121-.042-.244-.037-.373.298-7.607 4.591-13.913 8.245-17.945-.279-.537-.509-1.11-.682-1.714-.065-.227-.112-.455-.158-.683h-7.547c4.693-9.447 10.84-18.395 16.099-25.956l-10.944-7.555c-4.674-3.226-5.852-9.653-2.625-14.328 1.924-2.786 5.095-4.449 8.482-4.449 2.095 0 4.116.631 5.846 1.824l8.318 5.742c.342-4.883-1.063-9.452-4.631-12.174-6.995-5.337-20.194-5.984-30.619 5.465-14.241 15.826-20.787 27.303-27.216 48.724-3.507 16.023 5.97 21.913 14.43 25.437 2.875 1.198 5.251 2.07 7.323 2.186.461.052.928.084 1.404.084h14.62l.458 1.602c.293 1.025 1.371 1.623 2.396 1.33s1.623-1.371 1.33-2.395l-.154-.537h18.562z"/><path d="m21.892 212.036v3.684c-1.874.924-3.167 2.849-3.167 5.08 0 3.13 2.537 5.667 5.667 5.667s5.667-2.537 5.667-5.667c0-2.226-1.287-4.147-3.155-5.074l24.238-7.458v7.452c-1.874.924-3.167 2.849-3.167 5.08 0 3.13 2.537 5.667 5.667 5.667s5.667-2.537 5.667-5.667c0-2.231-1.293-4.155-3.167-5.08v-7.452l24.238 7.458c-1.868.927-3.155 2.848-3.155 5.074 0 3.13 2.537 5.667 5.667 5.667s5.667-2.537 5.667-5.667c0-2.231-1.293-4.155-3.167-5.08v-3.684l-29.25-9v-21.053h4.25v-1.77c14.848-.979 26-5.119 26-10.08 0-4.807-46.769-5.552-61.266-2.235l-11.211-29.856c4.78 7.458 9.706 11.687 13.023 10.441 5.326-2-17.699-63.319-23.025-61.32-4.341 1.63-4.586 12.128-1.086 25.124-.395-.053-.806-.023-1.206.127-1.292.485-1.947 1.927-1.461 3.219l20.857 55.546c.057.152.131.292.213.425 1.954 4.291 12.311 7.727 25.661 8.607v1.77h4.25v21.053z"/><path d="m124.942 59.612c.422 0 .85.026 1.271.078 5.638.695 9.658 5.847 8.962 11.484l-.865 7.012c2.661-4.973 3.471-10.943 1.798-16.795-3.415-11.947-15.87-18.865-27.818-15.449-11.948 3.415-18.864 15.87-15.449 27.818 2.596 9.082 10.414 15.25 19.262 16.19l2.628-21.299c.636-5.153 5.026-9.039 10.211-9.039z"/><path d="m250.688 129.101c-5.131-5.108-19.074-5.048-33.841-4.983-1.558.007-3.111.014-4.648.014-4.379 0-8.89-.682-13.216-1.711l-17.253-43.361 8.284-45.799-6.396-1.157-16.198 89.546 6.396 1.157.851-4.708c3.052 1.631 9.329 4.758 16.914 7.272h-27.531v4h37.698l-.565-1.419c3.626.733 7.349 1.191 11.015 1.191 1.539 0 3.096-.007 4.656-.014 13.656-.061 27.771-.124 32.367 4.45.662.659 1.077 1.406 1.293 2.241-.449 2.546-1.739 4.938-3.309 7.813-3.59 6.574-8.508 15.579-8.508 34.806 0 16.614-1.643 25.497-5.149 30.102v-61.616h5.417v-8.833h7.333v-5h-128.425v5h7.333v8.833h5.417v80.295h6.5v-12.17h9.457v-55.444h81.333v52.791c-.936.279-1.934.471-3 .587v-50.378h-75.333v64.667h75.333v-7.302c1.062-.117 2.064-.294 3-.545v7.795h5.636v-10.825c5.279-4.895 7.149-15.123 7.149-33.752 0-19.145 4.778-28.09 8.268-34.622 2.085-3.903 3.732-6.986 3.732-10.878 0-.494-.046-.971-.136-1.43.08-.578.136-1.166.136-1.779 0-1.879-.676-3.505-2.01-4.834zm-56.53-7.985c-8.371-2.524-15.47-5.966-18.658-7.621l4.883-26.997zm-19.032-5.551c3.703 1.91 11.23 5.485 19.985 7.945l.379.951c-9.38-2.732-17.382-6.787-20.446-8.439zm41.72 11.565c-1.558.007-3.111.014-4.647.014-3.939 0-7.987-.562-11.91-1.441l-.399-1.002c4.029.872 8.206 1.43 12.309 1.43 1.54 0 3.097-.007 4.657-.014 13.708-.06 27.879-.121 32.421 4.401.392.39.68.816.909 1.266-5.486-4.763-19.012-4.723-33.34-4.654zm-28.849 57.849c1.277.095 2.483.43 3.582.96l-3.582 6.204zm-1.5 7.163-3.582-6.204c1.098-.529 2.305-.865 3.582-.96zm-2.049 3.549-6.204 3.582c-.53-1.098-.865-2.305-.959-3.582zm-7.163-1.5c.095-1.277.43-2.483.959-3.582l6.203 3.582zm7.913 2.799-3.586 6.211c-1.03-.704-1.921-1.595-2.625-2.625zm1.299.75v7.163c-1.277-.095-2.483-.43-3.582-.959zm1.5 0 3.582 6.204c-1.098.529-2.305.865-3.582.959zm4.884 5.46-3.586-6.211 6.211 3.586c-.704 1.03-1.595 1.921-2.625 2.625zm3.368-3.928-6.204-3.582h7.163c-.094 1.277-.429 2.484-.959 3.582zm-6.203-5.081 6.204-3.582c.53 1.098.865 2.305.959 3.582zm5.46-4.885-6.211 3.586 3.586-6.211c1.03.704 1.921 1.595 2.625 2.625zm-13.894-2.625 3.586 6.211-6.211-3.586c.704-1.03 1.595-1.921 2.625-2.625zm43.301 31.288v-2.994c1.062-.114 2.064-.288 3-.533v2.892c-.938.301-1.936.509-3 .635zm8.636-4.733v-1.76c.843-.765 1.597-1.665 2.272-2.708-.646 1.795-1.403 3.268-2.272 4.468z"/><path d="m73.286 89.951c-2.51 3.636-1.597 8.619 2.039 11.128l38.75 26.75c1.358.938 2.947 1.417 4.546 1.417 1.111 0 2.229-.231 3.275-.702 2.553-1.146 4.321-3.542 4.663-6.319l6.333-51.333c.541-4.385-2.575-8.378-6.96-8.919-4.397-.54-8.378 2.576-8.919 6.96l-4.717 38.227-27.881-19.247c-3.638-2.511-8.618-1.598-11.129 2.038z"/><path d="m94.449 134.175c3.434-.69 11.309-1.633 15.981 2.887l3.477-3.592c-6.698-6.485-17.239-4.919-21.107-4.059.572.813 1.028 1.728 1.316 2.738.193.675.297 1.354.333 2.026z"/><ellipse cx="85.342" cy="134.657" rx="5.576" ry="5.576" transform="matrix(.198 -.98 .98 .198 -63.543 191.659)"/><path d="m131.203 39.713 16.013-19.858-9.641-1.771 9.946-16.117-3.757-1.967-10.733 20.353 8.772.985-11.439 17.887z"/><path d="m151.53 36.596-15.914 8.323.41.708 20.103-7.846-6.338-5.352 14.078-7.652-1.93-3.023-16.437 10.431z"/><path d="m121.924 38.87 4.915-20.673-7.883 2.126 1.694-15.683-3.533-.132-.762 19.151 6.95-2.405-2.181 17.548z"/><path d="m96.37 47.772c.546-.084.92-.596.835-1.142-.084-.545-.594-.918-1.142-.835-2.345.363-4.088 1.341-5.182 2.907-1.688 2.417-1.132 5.32-1.107 5.442.095.475.512.802.979.802.063 0 .129-.006.193-.019.541-.106.894-.631.79-1.172-.004-.022-.407-2.217.795-3.923.771-1.091 2.062-1.785 3.839-2.06z"/><path d="m87.062 45.46c-2.611 3.395-2.039 7.585-2.013 7.762.072.498.499.855.987.855.047 0 .095-.003.143-.01.546-.078.926-.583.85-1.13-.005-.035-.468-3.561 1.631-6.273 1.374-1.777 3.564-2.851 6.51-3.192.549-.063.941-.56.878-1.108s-.555-.942-1.108-.878c-3.512.406-6.163 1.743-7.878 3.974z"/><path d="m141.356 58.897c-.47-.291-1.086-.146-1.377.324-.29.469-.146 1.085.324 1.376.019.012 1.885 1.217 2.314 3.242.278 1.313-.096 2.735-1.112 4.228-.312.456-.193 1.079.263 1.389.173.118.368.174.563.174.319 0 .634-.153.827-.437 1.336-1.96 1.813-3.901 1.416-5.769-.612-2.884-3.112-4.461-3.218-4.527z"/><path d="m145.674 71.526c.179.132.388.196.594.196.307 0 .609-.14.805-.405 2.102-2.843 2.936-5.691 2.479-8.468-.695-4.226-4.147-6.67-4.294-6.772-.453-.315-1.072-.202-1.39.248-.315.452-.206 1.075.245 1.392.029.021 2.921 2.091 3.469 5.477.358 2.217-.354 4.55-2.116 6.935-.33.442-.236 1.068.208 1.397z"/></g></svg>