<svg width="56" height="56" viewBox="0 0 56 56" fill="none" xmlns="http://www.w3.org/2000/svg">
<path d="M56.0002 28C55.9918 35.4235 53.0392 42.5406 47.79 47.7898C42.5407 53.039 35.4237 55.9917 28.0002 56C22.0036 56.0214 16.1621 54.0958 11.3537 50.5127C11.2478 50.4345 11.1584 50.3362 11.0906 50.2234C11.0228 50.1106 10.9779 49.9855 10.9586 49.8554C10.9392 49.7252 10.9457 49.5925 10.9777 49.4648C11.0097 49.3372 11.0666 49.2171 11.1451 49.1115C11.2236 49.0058 11.3222 48.9167 11.4352 48.8493C11.5483 48.7818 11.6735 48.7373 11.8037 48.7184C11.9339 48.6994 12.0666 48.7063 12.1942 48.7387C12.3217 48.7711 12.4417 48.8284 12.547 48.9072C17.0108 52.2333 22.4336 54.0204 28.0002 54C32.814 53.999 37.533 52.6618 41.6318 50.1375C45.7307 47.6131 49.0484 44.0006 51.2156 39.7023C53.3828 35.4039 54.3144 30.5883 53.9067 25.7918C53.499 20.9953 51.768 16.4061 48.9064 12.5352C48.7861 12.3728 48.7178 12.1779 48.7105 11.976C48.7032 11.774 48.7573 11.5747 48.8655 11.4041C48.9738 11.2335 49.1312 11.0997 49.317 11.0203C49.5028 10.941 49.7083 10.9197 49.9064 10.9595L55.1964 12.0195C55.3255 12.045 55.4483 12.0956 55.5577 12.1686C55.6672 12.2416 55.7612 12.3355 55.8343 12.4449C55.9074 12.5542 55.9582 12.677 55.9838 12.806C56.0094 12.935 56.0093 13.0679 55.9835 13.1969C55.9577 13.3259 55.9066 13.4485 55.8333 13.5578C55.76 13.667 55.6659 13.7607 55.5563 13.8335C55.4467 13.9063 55.3238 13.9568 55.1947 13.982C55.0656 14.0072 54.9328 14.0067 54.8038 13.9805L51.9015 13.3989C54.596 17.7914 56.0152 22.847 56.0002 28ZM2.00015 28C2.00116 23.1863 3.33823 18.4673 5.86248 14.3685C8.38674 10.2697 11.9991 6.95201 16.2974 4.78477C20.5956 2.61752 25.411 1.68582 30.2075 2.0934C35.0039 2.50098 39.5931 4.23184 43.464 7.09327C43.5695 7.1715 43.6894 7.22819 43.8167 7.26009C43.9441 7.292 44.0766 7.29851 44.2065 7.27924C44.3364 7.25997 44.4612 7.2153 44.5738 7.14779C44.6865 7.08027 44.7847 6.99123 44.8629 6.88575C44.9412 6.78027 44.9979 6.66042 45.0298 6.53303C45.0617 6.40564 45.0682 6.27322 45.0489 6.14331C45.0297 6.01341 44.985 5.88858 44.9175 5.77594C44.85 5.6633 44.7609 5.56506 44.6554 5.48683C40.4869 2.4047 35.5446 0.540131 30.3791 0.100769C25.2135 -0.338594 20.0273 0.664493 15.3981 2.99833C10.7689 5.33216 6.8784 8.90513 4.15978 13.3194C1.44116 17.7336 0.00116438 22.8158 0.000153162 28C-0.0169724 33.1515 1.40237 38.2058 4.09879 42.5952L1.19449 42.019C1.06567 41.9935 0.933075 41.9936 0.804288 42.0193C0.675501 42.045 0.553042 42.0959 0.443902 42.1689C0.334762 42.242 0.241079 42.3358 0.168201 42.4451C0.0953234 42.5543 0.0446789 42.6768 0.0191585 42.8057C-0.00636198 42.9345 -0.00625842 43.0671 0.0194636 43.1959C0.0451857 43.3247 0.0960222 43.4471 0.169071 43.5563C0.316599 43.7767 0.545646 43.9295 0.805823 43.981L6.09582 45.0308C6.294 45.0701 6.49943 45.0485 6.68508 44.9688C6.87072 44.8891 7.02786 44.755 7.1358 44.5842C7.24374 44.4134 7.29741 44.2139 7.28975 44.012C7.28209 43.8101 7.21346 43.6153 7.09289 43.4532C3.76701 38.9894 1.97989 33.5666 2.00015 28ZM49.0002 28C49.0002 32.1534 47.7685 36.2136 45.461 39.667C43.1535 43.1204 39.8738 45.812 36.0365 47.4015C32.1993 48.9909 27.9769 49.4068 23.9033 48.5965C19.8297 47.7862 16.0878 45.7862 13.1509 42.8493C10.214 39.9124 8.21395 36.1705 7.40366 32.0969C6.59337 28.0233 7.00924 23.8009 8.59868 19.9637C10.1881 16.1264 12.8797 12.8467 16.3332 10.5391C19.7866 8.23164 23.8467 7.00001 28.0002 7.00001C33.5678 7.00612 38.9057 9.22057 42.8427 13.1575C46.7796 17.0945 48.994 22.4323 49.0002 28ZM24.5002 16.88C24.5002 17.5722 24.7054 18.2489 25.09 18.8245C25.4746 19.4001 26.0212 19.8487 26.6608 20.1136C27.3003 20.3785 28.004 20.4478 28.683 20.3128C29.3619 20.1777 29.9855 19.8444 30.475 19.3549C30.9645 18.8654 31.2979 18.2418 31.4329 17.5628C31.5679 16.8839 31.4986 16.1802 31.2337 15.5406C30.9688 14.9011 30.5202 14.3545 29.9447 13.9699C29.3691 13.5853 28.6924 13.38 28.0002 13.38C27.0722 13.381 26.1826 13.7501 25.5264 14.4063C24.8702 15.0624 24.5012 15.9521 24.5002 16.88ZM32.5002 37.62C32.5006 37.4886 32.4751 37.3583 32.425 37.2368C32.3749 37.1153 32.3012 37.0048 32.2083 36.9119C32.1153 36.8189 32.0049 36.7453 31.8834 36.6952C31.7618 36.6451 31.6316 36.6196 31.5002 36.62H31.0002V23.8C31.0006 23.6686 30.9751 23.5383 30.925 23.4168C30.8749 23.2953 30.8012 23.1848 30.7083 23.0919C30.6153 22.9989 30.5049 22.9253 30.3834 22.8752C30.2618 22.8251 30.1316 22.7996 30.0002 22.8H24.5002C24.3687 22.7996 24.2385 22.8251 24.1169 22.8752C23.9954 22.9253 23.885 22.9989 23.792 23.0919C23.6991 23.1848 23.6254 23.2953 23.5753 23.4168C23.5253 23.5383 23.4997 23.6686 23.5002 23.8V27.8C23.5009 28.065 23.6066 28.3189 23.7939 28.5062C23.9813 28.6936 24.2352 28.7992 24.5002 28.8H25.0002V36.62H24.5002C24.3687 36.6196 24.2385 36.6451 24.1169 36.6952C23.9954 36.7453 23.885 36.8189 23.792 36.9119C23.6991 37.0048 23.6254 37.1153 23.5753 37.2368C23.5253 37.3583 23.4997 37.4886 23.5002 37.62V41.62C23.5009 41.885 23.6066 42.1389 23.7939 42.3262C23.9813 42.5136 24.2352 42.6192 24.5002 42.62H31.5002C31.7651 42.6192 32.019 42.5136 32.2064 42.3262C32.3938 42.1389 32.4994 41.885 32.5002 41.62V37.62Z" fill="white"/>
</svg>
