<svg width="15" height="16" viewBox="0 0 15 16" fill="none" xmlns="http://www.w3.org/2000/svg">
<path d="M11.8611 9.30379C11.5535 8.98357 11.1826 8.81236 10.7894 8.81236C10.3995 8.81236 10.0254 8.9804 9.70514 9.30061L8.70328 10.2993C8.62085 10.2549 8.53841 10.2137 8.45915 10.1725C8.34502 10.1154 8.23722 10.0615 8.14528 10.0045C7.20682 9.40841 6.35397 8.63165 5.53599 7.62661C5.13968 7.12568 4.87336 6.70401 4.67996 6.27599C4.93994 6.03821 5.1809 5.79091 5.41551 5.55313C5.50428 5.46436 5.59306 5.37241 5.68183 5.28364C6.34763 4.61784 6.34763 3.75548 5.68183 3.08968L4.81629 2.22414C4.71801 2.12586 4.61655 2.02441 4.52144 1.92295C4.33121 1.72638 4.13147 1.52347 3.92539 1.33325C3.61786 1.02888 3.25009 0.867188 2.86329 0.867188C2.47649 0.867188 2.10238 1.02888 1.78533 1.33325C1.78216 1.33642 1.78216 1.33642 1.77899 1.33959L0.701036 2.42705C0.295217 2.83287 0.0637733 3.32747 0.013046 3.90132C-0.0630451 4.82709 0.209615 5.68946 0.418865 6.2538C0.93248 7.63929 1.69973 8.92333 2.84427 10.2993C4.23293 11.9575 5.90376 13.2669 7.81238 14.1895C8.54159 14.535 9.51492 14.944 10.6024 15.0138C10.669 15.017 10.7387 15.0201 10.8021 15.0201C11.5345 15.0201 12.1496 14.757 12.6315 14.2339C12.6347 14.2275 12.641 14.2243 12.6442 14.218C12.809 14.0183 12.9993 13.8375 13.199 13.6441C13.3353 13.5142 13.4748 13.3778 13.6112 13.2352C13.925 12.9086 14.0899 12.5281 14.0899 12.1382C14.0899 11.745 13.9219 11.3678 13.6016 11.0507L11.8611 9.30379ZM12.9961 12.6423C12.9929 12.6423 12.9929 12.6455 12.9961 12.6423C12.8724 12.7754 12.7456 12.8959 12.6093 13.0291C12.4032 13.2256 12.194 13.4317 11.9974 13.6632C11.6772 14.0056 11.2999 14.1673 10.8053 14.1673C10.7577 14.1673 10.707 14.1673 10.6595 14.1641C9.71783 14.1039 8.84278 13.7361 8.18649 13.4222C6.39201 12.5535 4.81629 11.3202 3.50689 9.75716C2.42577 8.4541 1.7029 7.24933 1.22416 5.95578C0.929309 5.16633 0.821514 4.55126 0.86907 3.97107C0.900775 3.60013 1.04345 3.29259 1.30659 3.02944L2.38772 1.94831C2.54307 1.80247 2.70794 1.72321 2.86963 1.72321C3.06937 1.72321 3.23106 1.84369 3.33252 1.94514C3.33569 1.94831 3.33886 1.95149 3.34203 1.95466C3.53543 2.13537 3.71931 2.32243 3.91271 2.52217C4.011 2.62362 4.11245 2.72508 4.21391 2.8297L5.07944 3.69524C5.41551 4.03131 5.41551 4.34201 5.07944 4.67808C4.9875 4.77003 4.89873 4.86197 4.80678 4.95074C4.54046 5.2234 4.28683 5.47704 4.011 5.72433C4.00466 5.73067 3.99832 5.73385 3.99514 5.74019C3.72249 6.01285 3.77321 6.27916 3.83028 6.45988C3.83345 6.46939 3.83662 6.4789 3.83979 6.48841C4.0649 7.03373 4.38194 7.54735 4.86385 8.15925L4.86702 8.16242C5.74207 9.24038 6.66467 10.0805 7.68239 10.7242C7.81238 10.8066 7.94554 10.8732 8.07236 10.9366C8.18649 10.9936 8.29429 11.0475 8.38623 11.1046C8.39891 11.1109 8.4116 11.1205 8.42428 11.1268C8.53207 11.1807 8.63353 11.2061 8.73815 11.2061C9.0013 11.2061 9.16617 11.0412 9.22006 10.9873L10.3044 9.903C10.4122 9.79521 10.5834 9.66522 10.7831 9.66522C10.9797 9.66522 11.1414 9.78887 11.2396 9.89666C11.2428 9.89983 11.2428 9.89983 11.246 9.903L12.9929 11.6499C13.3195 11.9733 13.3195 12.3062 12.9961 12.6423Z" fill="#737373"/>
<path d="M8.10621 3.57564C8.93688 3.71514 9.69145 4.10827 10.2938 4.71066C10.8962 5.31305 11.2862 6.06762 11.4289 6.89828C11.4637 7.10753 11.6444 7.25337 11.8505 7.25337C11.8759 7.25337 11.8981 7.2502 11.9235 7.24703C12.1581 7.20898 12.3134 6.98705 12.2754 6.75244C12.1042 5.7474 11.6286 4.83114 10.9026 4.1051C10.1765 3.37907 9.26026 2.9035 8.25523 2.73229C8.02061 2.69425 7.80185 2.8496 7.76063 3.08104C7.71942 3.31249 7.8716 3.53759 8.10621 3.57564Z" fill="#737373"/>
<path d="M14.994 6.62645C14.7119 4.97147 13.9319 3.4655 12.7335 2.26706C11.5351 1.06863 10.0291 0.288696 8.3741 0.00652528C8.14266 -0.0346907 7.9239 0.123832 7.88268 0.355276C7.84463 0.58989 7.99999 0.808652 8.2346 0.849868C9.71204 1.10033 11.0595 1.80101 12.1311 2.86945C13.2027 3.94107 13.9002 5.28851 14.1507 6.76595C14.1856 6.9752 14.3663 7.12104 14.5724 7.12104C14.5977 7.12104 14.6199 7.11787 14.6453 7.1147C14.8767 7.07982 15.0352 6.85789 14.994 6.62645Z" fill="#737373"/>
</svg>
